<?xml version="1.0" standalone="no"?>
<!DOCTYPE svg PUBLIC "-//W3C//DTD SVG 20010904//EN"
 "http://www.w3.org/TR/2001/REC-SVG-20010904/DTD/svg10.dtd">
<svg version="1.0" xmlns="http://www.w3.org/2000/svg"
 width="235.000000pt" height="235.000000pt" viewBox="0 0 235.000000 235.000000"
 preserveAspectRatio="xMidYMid meet">
<metadata>
Created by potrace 1.14, written by Peter Selinger 2001-2017
</metadata>
<g transform="translate(0.000000,235.000000) scale(0.100000,-0.100000)"
fill="#000000" stroke="none">
<path d="M1 1363 c0 -877 2 -983 15 -943 12 38 40 133 60 205 8 30 5 152 -6
220 -26 156 9 379 96 615 13 36 40 110 60 165 41 112 75 185 108 230 12 17 39
57 59 90 49 80 143 178 246 256 46 35 93 72 105 81 12 9 44 28 71 42 l50 25
-432 1 -433 0 1 -987z"/>
<path d="M1446 2331 c69 -25 108 -46 148 -81 18 -16 65 -41 105 -54 151 -51
248 -130 321 -263 53 -94 109 -225 109 -253 1 -8 -22 27 -49 79 -28 52 -66
113 -85 137 -39 47 -123 107 -137 98 -6 -4 2 -14 17 -24 42 -27 136 -122 129
-129 -4 -3 -9 0 -11 7 -3 6 -14 12 -26 11 -15 0 -17 -2 -7 -6 24 -10 38 -32
86 -133 86 -181 141 -330 153 -419 14 -108 14 -109 -6 -114 -14 -4 -13 -5 3
-6 21 -1 22 -6 23 -119 2 -96 -2 -129 -18 -173 -11 -30 -22 -69 -26 -87 -8
-37 -25 -33 -25 6 0 15 -5 34 -10 42 -9 13 -11 13 -20 0 -12 -18 -11 -21 -16
58 -3 35 -18 103 -34 151 -17 49 -30 92 -30 96 0 16 20 -9 41 -52 29 -60 38
-34 10 28 -11 24 -22 54 -26 67 -4 15 -14 22 -31 22 -13 0 -24 5 -24 10 0 6
-15 10 -32 10 -24 0 -29 3 -19 9 12 8 6 18 -31 53 -25 25 -53 59 -63 77 -15
31 -15 34 1 45 9 7 17 25 17 39 0 15 1 27 4 27 2 0 14 -22 27 -49 17 -38 26
-47 37 -40 25 16 31 10 29 -28 -1 -21 -2 -43 -1 -49 2 -19 39 -56 50 -50 14 9
104 -91 95 -105 -3 -5 4 -9 16 -9 20 0 20 1 5 30 -9 17 -17 52 -19 78 -2 27
-8 57 -13 68 -64 128 -121 219 -177 284 -26 31 -28 35 -12 38 12 3 32 -11 55
-38 75 -89 91 -105 91 -92 0 17 -28 72 -46 90 -17 17 -18 42 -1 42 6 0 20 -20
30 -44 10 -25 26 -51 35 -58 14 -11 15 -10 7 7 -4 11 -15 39 -23 63 -13 37
-18 42 -46 42 -27 1 -37 10 -81 73 -62 89 -105 133 -142 141 -40 10 -83 30
-83 38 0 5 -10 9 -22 9 -18 1 -19 2 -5 6 24 6 11 23 -19 23 -13 0 -24 5 -24
10 0 6 -7 10 -15 10 -47 0 -96 52 -62 66 9 3 12 16 9 35 -2 16 1 43 8 59 16
38 0 65 -72 118 -45 33 -55 37 -64 24 -8 -11 -15 -12 -32 -3 -35 19 -165 26
-193 10 -13 -7 -44 -14 -69 -15 -76 -3 -80 -4 -80 -14 0 -5 20 -10 45 -10 34
0 45 -4 45 -15 0 -9 -6 -17 -12 -19 -17 -5 -130 -30 -246 -56 -107 -23 -213
-79 -265 -140 -41 -49 -96 -139 -112 -186 -7 -20 -30 -66 -51 -100 -30 -50
-44 -64 -64 -65 l-25 -1 23 -7 24 -6 -21 -24 c-37 -43 -54 -124 -47 -218 4
-51 2 -114 -5 -163 -12 -76 -14 -80 -38 -81 l-26 -1 25 -7 c25 -6 26 -9 25
-83 0 -43 4 -79 10 -80 5 -2 14 22 20 52 18 85 33 122 63 155 15 17 34 49 41
73 8 23 15 42 15 42 1 0 19 -9 40 -19 21 -11 44 -17 52 -14 8 3 14 1 14 -5 0
-12 128 -22 155 -11 19 8 19 8 -2 15 -28 8 -29 16 -5 37 16 15 19 15 30 -3 13
-21 38 -25 62 -10 12 8 12 14 -3 45 -22 46 -14 60 21 37 25 -16 26 -16 19 1
-17 44 -83 131 -117 153 -44 29 -146 48 -212 39 -27 -3 -48 -3 -48 0 0 4 18
43 39 88 46 95 120 207 165 248 79 72 239 121 441 134 79 6 99 3 167 -19 87
-28 134 -50 163 -76 11 -10 36 -20 55 -22 26 -2 40 -11 57 -37 12 -18 20 -37
17 -42 -3 -5 1 -9 10 -9 8 0 16 -6 19 -12 2 -7 8 -9 13 -5 4 4 0 21 -9 36 -17
28 -16 29 3 24 12 -3 19 -8 16 -10 -3 -3 4 -14 15 -26 21 -23 24 -37 9 -37
-17 0 -11 -14 24 -55 19 -22 32 -42 29 -45 -2 -3 -15 8 -27 23 -20 25 -27 28
-60 22 -33 -7 -39 -4 -77 35 -48 50 -55 45 -58 -43 -1 -34 -7 -65 -14 -69 -7
-4 -8 -8 -2 -9 6 -1 -8 -5 -30 -10 -40 -7 -40 -7 10 -6 l51 2 2 -63 2 -62 -47
24 c-91 47 -196 38 -300 -25 -42 -25 -92 -77 -93 -96 0 -6 -12 -25 -26 -42
-14 -17 -23 -31 -20 -31 3 0 -5 -25 -19 -56 -27 -61 -33 -113 -12 -115 6 -1
-1 -5 -18 -9 l-30 -8 31 -1 c33 -1 44 -15 44 -57 0 -17 -6 -24 -20 -24 -11 0
-20 -4 -20 -10 0 -5 -7 -10 -15 -10 -8 0 -15 -4 -15 -10 0 -5 -15 -13 -32 -18
-23 -6 -34 -15 -36 -30 l-3 -22 -26 20 c-32 25 -55 25 -76 2 -15 -17 -15 -20
-1 -41 10 -13 22 -20 31 -17 15 6 73 -22 73 -35 0 -4 11 -10 25 -13 14 -4 25
-11 25 -16 0 -6 9 -10 20 -10 11 0 20 -4 20 -10 0 -5 8 -10 18 -10 10 0 22 -3
26 -7 7 -7 9 -8 71 -22 50 -11 48 -12 -55 -15 -47 -1 -104 -9 -127 -18 -24 -9
-45 -12 -51 -6 -11 11 -132 13 -192 4 -66 -11 -81 -16 -74 -28 4 -6 10 -6 16
0 6 6 23 3 48 -9 33 -16 49 -17 112 -10 147 18 332 3 289 -24 -23 -14 17 -35
66 -34 36 0 43 3 28 9 -17 7 -16 9 10 9 17 1 50 8 75 17 106 36 116 46 81 78
-15 13 -24 14 -46 6 -29 -11 -95 -4 -95 11 0 5 5 9 10 9 15 0 12 45 -4 85 -26
60 8 43 96 -50 45 -47 85 -85 90 -85 4 0 8 8 8 18 1 14 4 13 21 -8 36 -43 14
-140 -45 -193 -10 -9 -16 -17 -12 -17 23 0 -91 -76 -128 -86 -14 -3 -26 -10
-26 -15 0 -5 -9 -9 -19 -9 -11 0 -21 -3 -23 -7 -5 -13 -111 -79 -161 -102 -32
-15 -73 -23 -133 -25 -86 -4 -112 2 -164 35 -14 9 -54 19 -90 23 -36 3 -66 11
-68 16 -2 6 -8 10 -13 10 -21 0 -89 51 -83 62 4 6 3 8 -4 4 -6 -3 -23 10 -38
30 -24 31 -29 33 -37 18 -17 -30 1 -155 43 -289 22 -72 40 -148 40 -170 0 -85
0 -85 110 -85 l97 0 -10 50 c-5 28 -7 53 -4 57 7 7 97 -83 97 -97 0 -6 120
-10 315 -10 173 0 315 4 315 9 0 4 17 34 37 65 31 46 42 56 66 56 16 0 26 4
22 10 -3 6 4 10 16 10 16 0 20 3 13 10 -12 12 -44 3 -44 -11 0 -5 -7 -9 -16
-9 -29 0 8 27 98 71 10 5 29 9 42 9 14 0 28 4 31 10 3 5 15 10 26 10 11 0 18
4 15 9 -7 11 60 20 76 10 7 -5 10 -10 8 -12 -11 -10 -102 -37 -125 -37 -14 0
-25 -4 -25 -10 0 -5 -7 -10 -15 -10 -8 0 -15 -3 -15 -7 0 -5 -23 -21 -50 -38
-28 -16 -50 -33 -50 -37 0 -4 -6 -8 -12 -9 -16 0 -53 -46 -62 -76 l-7 -23 470
0 471 0 0 1175 0 1175 -477 -1 c-473 0 -477 -1 -427 -18z m179 -381 c3 -5 1
-10 -4 -10 -6 0 -11 5 -11 10 0 6 2 10 4 10 3 0 8 -4 11 -10z m312 -276 c-3
-3 -12 -4 -19 -1 -8 3 -5 6 6 6 11 1 17 -2 13 -5z m-1250 -135 c18 -12 33 -29
33 -39 0 -11 8 -24 18 -29 13 -8 8 -10 -25 -11 -23 0 -45 -4 -48 -10 -3 -5
-11 -10 -17 -10 -7 0 -6 5 2 15 7 8 10 21 7 29 -4 11 -12 11 -41 2 -20 -6 -36
-14 -36 -18 0 -5 -5 -8 -11 -8 -6 0 -20 -11 -31 -25 -11 -14 -26 -25 -34 -25
-13 0 -14 10 -9 58 8 61 24 88 59 95 37 8 99 -3 133 -24z m759 -18 c38 -17 84
-62 84 -82 0 -13 -38 -11 -63 3 -12 6 -46 16 -76 22 -64 13 -87 39 -57 62 26
19 62 17 112 -5z m-807 -197 c14 -31 12 -35 -15 -28 -16 4 -20 12 -16 30 6 31
16 30 31 -2z m638 -25 c21 -8 23 -12 13 -24 -10 -12 -7 -16 15 -25 14 -5 32
-10 40 -10 8 0 17 -4 20 -10 9 -14 73 -12 120 5 58 21 132 20 144 -3 26 -49
-11 -154 -65 -183 -15 -8 -35 -33 -45 -56 -10 -24 -22 -43 -27 -43 -5 0 -26
-13 -46 -29 -24 -19 -44 -27 -59 -24 -28 5 -148 64 -165 81 -8 7 -43 29 -77
49 -71 41 -96 80 -44 69 l31 -6 -23 38 c-13 20 -27 39 -32 41 -5 2 -3 7 4 12
10 6 11 9 2 9 -25 0 -14 39 12 46 19 5 25 13 25 35 0 26 4 29 30 29 20 0 38 9
52 25 21 25 21 25 36 4 8 -11 25 -25 39 -30z m107 6 c-4 -8 -16 -15 -27 -15
-20 0 -20 0 -1 15 25 19 35 19 28 0z m-657 -11 c-3 -3 -12 -4 -19 -1 -8 3 -5
6 6 6 11 1 17 -2 13 -5z m1255 -561 c3 -33 0 -43 -12 -44 -11 -1 -11 -2 3 -6
12 -3 17 -15 17 -44 0 -21 -4 -39 -8 -39 -5 0 -9 -6 -9 -12 0 -30 -62 -137
-103 -178 -58 -59 -127 -93 -218 -110 -99 -18 -117 -41 -42 -53 18 -3 14 -5
-12 -6 -20 0 -39 -5 -43 -10 -3 -5 -16 -8 -30 -5 -29 5 -99 -26 -137 -61 -28
-26 -60 -36 -36 -11 7 7 26 28 41 46 36 41 105 72 232 106 238 63 295 123 310
329 10 140 38 197 47 98z m-108 -410 c-19 -27 -44 -63 -56 -80 -11 -18 -25
-33 -30 -33 -6 0 -3 10 6 23 32 44 37 57 25 57 -7 0 6 13 29 29 22 16 43 34
47 40 3 6 8 11 11 11 2 0 -12 -21 -32 -47z"/>
<path d="M1518 1183 c12 -2 32 -2 45 0 12 2 2 4 -23 4 -25 0 -35 -2 -22 -4z"/>
<path d="M1568 1163 c12 -2 30 -2 40 0 9 3 -1 5 -23 4 -22 0 -30 -2 -17 -4z"/>
<path d="M1878 1873 c7 -3 16 -2 19 1 4 3 -2 6 -13 5 -11 0 -14 -3 -6 -6z"/>
<path d="M2018 1683 c6 -2 18 -2 25 0 6 3 1 5 -13 5 -14 0 -19 -2 -12 -5z"/>
<path d="M318 1183 c6 -2 18 -2 25 0 6 3 1 5 -13 5 -14 0 -19 -2 -12 -5z"/>
<path d="M993 1163 c9 -2 23 -2 30 0 6 3 -1 5 -18 5 -16 0 -22 -2 -12 -5z"/>
<path d="M699 1009 c-8 -4 -27 -13 -44 -20 -42 -20 -72 -47 -107 -97 -34 -49
-33 -72 6 -117 30 -35 37 -30 61 39 16 49 64 124 113 178 23 25 23 27 5 25
-11 0 -26 -4 -34 -8z"/>
<path d="M232 967 c-29 -35 -54 -127 -34 -127 14 0 61 114 53 128 -6 11 -9 11
-19 -1z"/>
<path d="M193 683 c9 -2 23 -2 30 0 6 3 -1 5 -18 5 -16 0 -22 -2 -12 -5z"/>
<path d="M418 683 c7 -3 16 -2 19 1 4 3 -2 6 -13 5 -11 0 -14 -3 -6 -6z"/>
<path d="M488 683 c7 -3 16 -2 19 1 4 3 -2 6 -13 5 -11 0 -14 -3 -6 -6z"/>
<path d="M838 683 c6 -2 18 -2 25 0 6 3 1 5 -13 5 -14 0 -19 -2 -12 -5z"/>
<path d="M918 683 c23 -2 59 -2 80 0 20 2 1 4 -43 4 -44 0 -61 -2 -37 -4z"/>
<path d="M1108 683 c7 -3 16 -2 19 1 4 3 -2 6 -13 5 -11 0 -14 -3 -6 -6z"/>
<path d="M1178 683 c23 -2 59 -2 80 0 20 2 1 4 -43 4 -44 0 -61 -2 -37 -4z"/>
<path d="M1308 683 c7 -3 16 -2 19 1 4 3 -2 6 -13 5 -11 0 -14 -3 -6 -6z"/>
<path d="M320 231 c0 -79 -5 -126 -19 -170 l-19 -61 41 0 40 0 -7 143 c-7 151
-13 197 -27 197 -5 0 -9 -49 -9 -109z"/>
<path d="M1540 180 c0 -5 5 -10 10 -10 6 0 10 5 10 10 0 6 -4 10 -10 10 -5 0
-10 -4 -10 -10z"/>
<path d="M58 133 c7 -3 16 -2 19 1 4 3 -2 6 -13 5 -11 0 -14 -3 -6 -6z"/>
<path d="M3 60 c0 -36 2 -50 4 -32 2 17 2 47 0 65 -2 17 -4 3 -4 -33z"/>
</g>
</svg>
